<svg xmlns="http://www.w3.org/2000/svg" width="48" height="48" viewBox="0 0 48 48">
  <g id="Group_308" data-name="Group 308" transform="translate(10944 23744)">
    <rect id="Rectangle_685" data-name="Rectangle 685" width="48" height="48" rx="24" transform="translate(-10944 -23744)" fill="#fff"/>
    <path id="Path_571" data-name="Path 571" d="M36.378,0a1.121,1.121,0,0,1,1.013.633l3.216,6.623,7.181,1.059a1.118,1.118,0,0,1,.9.764,1.13,1.13,0,0,1-.277,1.148l-5.208,5.166,1.228,7.294A1.127,1.127,0,0,1,42.8,23.869l-6.422-3.431-6.413,3.427a1.119,1.119,0,0,1-1.186-.08,1.136,1.136,0,0,1-.455-1.1l1.228-7.294-5.208-5.161a1.126,1.126,0,0,1,.628-1.913L32.15,7.256,35.366.633A1.126,1.126,0,0,1,36.378,0Zm0,3.7L33.917,8.775a1.136,1.136,0,0,1-.848.623l-5.545.816L31.55,14.2a1.128,1.128,0,0,1,.319.984L30.917,20.8l4.931-2.634a1.117,1.117,0,0,1,1.059,0L41.839,20.8l-.947-5.606a1.115,1.115,0,0,1,.319-.984l4.027-3.989L39.692,9.4a1.133,1.133,0,0,1-.848-.623Z" transform="translate(-10956.378 -23732)" fill="#83679a"/>
  </g>
</svg>
